<svg height="464pt" viewBox="-64 0 464 464" width="464pt" xmlns="http://www.w3.org/2000/svg"><path d="m272 272h16v128h-16zm0 0"/><path d="m208 304h16v96h-16zm0 0"/><path d="m144 336h16v64h-16zm0 0"/><path d="m80 368h16v32h-16zm0 0"/><path d="m64 192h96v-144h-96zm16-128h64v16h-64zm0 32h64v16h-64zm0 32h64v16h-64zm0 32h64v16h-64zm0 0"/><path d="m305.222656 32 5.328125-32h-77.101562l5.328125 32zm0 0"/><path d="m324.113281 16-5.335937 32h-22.777344v26.960938c5.121094 5.832031 8 13.3125 8 21.039062 0 17.648438-14.351562 32-32 32s-32-14.351562-32-32c0-7.726562 2.878906-15.207031 8-21.039062v-26.960938h-22.777344l-5.335937-32h-187.886719v416h304v-416zm-132.113281 128h16v16h-16zm0 32h16v16h-16zm0 32h16v16h-16zm-144-176h128v176h-128zm272 384h-272v-16h16v-48h48v48h16v-80h48v80h16v-112h48v112h16v-144h48v144h16zm0-192h-96v-16h96zm0-32h-96v-16h96zm0-32h-96v-16h96zm0 0"/><path d="m264 48v33.785156l-2.640625 2.382813c-3.457031 3.113281-5.359375 7.320312-5.359375 11.832031 0 8.824219 7.175781 16 16 16s16-7.175781 16-16c0-4.511719-1.902344-8.71875-5.359375-11.832031l-2.640625-2.382813v-33.785156zm0 0"/><path d="m16 48h-16v416h304v-16h-288zm0 0"/></svg>